# Blender 4.3.2
# www.blender.org
mtllib Small01.mtl
o 小三角形001
v 1.842156 0.000000 -1.485446
v 1.842156 0.000000 0.014554
v 1.092156 0.000000 -0.735446
v 1.842156 -0.213297 0.014554
v 1.842156 -0.213297 -1.485446
v 1.092156 -0.213297 -0.735446
vn -0.0000 -1.0000 -0.0000
vn -0.0000 1.0000 -0.0000
vn 0.7071 -0.0000 -0.7071
vn 0.7071 -0.0000 0.7071
vn -1.0000 -0.0000 -0.0000
vt 0.454319 -0.000000
vt 0.908637 -0.000000
vt 0.908637 0.454319
vt 0.000000 -0.000000
vt 0.454319 0.454319
vt 0.000000 0.454319
vt 0.091363 0.908637
vt 0.091363 0.454319
vt 0.182725 0.454319
vt 0.182725 0.908637
vt -0.000000 0.908637
vt 0.000000 0.454319
vt 0.091363 0.454319
vt 0.091363 0.908637
vt 0.908637 0.642503
vt 0.908637 -0.000000
vt 1.000000 -0.000000
vt 1.000000 0.642503
s 0
usemtl 小三角形001
f 2/1/1 3/2/1 1/3/1
f 4/4/2 5/5/2 6/6/2
f 3/7/3 2/8/3 4/9/3 6/10/3
f 1/11/4 3/12/4 6/13/4 5/14/4
f 2/15/5 1/16/5 5/17/5 4/18/5
