# Blender 4.3.2
# www.blender.org
mtllib Rhombus.mtl
o 菱形
v -1.519689 0.000000 1.795334
v -0.019689 0.000000 1.795334
v 0.730311 0.000000 1.045334
v -0.769689 0.000000 1.045334
v -1.519689 -0.213297 1.795334
v -0.019689 -0.213297 1.795334
v -0.769689 -0.213297 1.045334
v 0.730311 -0.213297 1.045334
vn -0.0000 -1.0000 -0.0000
vn -0.0000 1.0000 -0.0000
vn -0.7071 -0.0000 -0.7071
vn 0.7071 -0.0000 0.7071
vn -0.0000 -0.0000 1.0000
vn -0.0000 -0.0000 -1.0000
vt 0.333333 -0.000000
vt 0.666667 0.333333
vt 0.666667 1.000000
vt 0.333333 0.666667
vt 0.000000 1.000000
vt 0.000000 0.333333
vt 0.333333 -0.000000
vt 0.333333 0.666667
vt 0.666667 0.471405
vt 0.666667 -0.000000
vt 0.761466 -0.000000
vt 0.761466 0.471405
vt 0.761466 0.471405
vt 0.761466 0.000000
vt 0.856264 0.000000
vt 0.856264 0.471405
vt 0.761466 0.942809
vt 0.856264 0.942809
vt 0.666667 0.942809
vt 0.761465 0.942809
s 0
usemtl 菱形
f 1/1/1 4/2/1 3/3/1 2/4/1
f 5/5/2 6/6/2 8/7/2 7/8/2
f 2/9/3 3/10/3 8/11/3 6/12/3
f 4/13/4 1/14/4 5/15/4 7/16/4
f 3/17/5 4/13/5 7/16/5 8/18/5
f 1/19/6 2/9/6 6/12/6 5/20/6
