# Blender 4.3.2
# www.blender.org
mtllib Square.mtl
o 正方形
v 0.896239 0.000000 -0.743133
v 1.646239 0.000000 0.006867
v 0.152802 0.000000 0.006867
v 0.902802 0.000000 0.756867
v 0.902802 -0.213297 0.756867
v 0.152802 -0.213297 0.006867
v 0.896239 -0.213297 -0.743133
v 1.646239 -0.213297 0.006867
vn -0.0000 -1.0000 -0.0000
vn -0.0000 1.0000 -0.0000
vn -0.7071 -0.0000 0.7071
vn 0.7071 -0.0000 -0.7071
vn -0.7102 -0.0000 -0.7040
vn 0.7102 -0.0000 0.7040
vt 0.496726 -0.000000
vt 0.496726 0.498909
vt 0.000000 0.501091
vt -0.000000 0.002183
vt 0.496726 -0.000000
vt 0.993451 0.002183
vt 0.993451 0.501091
vt 0.496726 0.498909
vt 0.000000 1.000000
vt 0.000000 0.501091
vt 0.100330 0.501091
vt 0.100330 1.000000
vt 0.100330 1.000000
vt 0.100330 0.501091
vt 0.200659 0.501091
vt 0.200659 1.000000
vt 0.200659 0.997822
vt 0.200659 0.501091
vt 0.300989 0.501091
vt 0.300989 0.997822
vt 0.300989 0.997822
vt 0.300989 0.501091
vt 0.401319 0.501091
vt 0.401319 0.997822
s 0
usemtl 正方形
f 4/1/1 3/2/1 1/3/1 2/4/1
f 5/5/2 8/6/2 7/7/2 6/8/2
f 2/9/3 1/10/3 7/11/3 8/12/3
f 3/13/4 4/14/4 5/15/4 6/16/4
f 4/17/5 2/18/5 8/19/5 5/20/5
f 1/21/6 3/22/6 6/23/6 7/24/6
