# Blender 4.3.2
# www.blender.org
mtllib 中三角形碰撞.mtl
o 中三角形碰撞
v 3.999580 0.000000 -0.756731
v 3.999580 0.000000 0.753269
v 3.999580 0.000000 0.753269
v 5.509580 0.000000 -0.756731
v 5.509580 -0.214719 -0.756731
v 3.999580 -0.214719 -0.756731
v 3.999580 -0.214719 0.753269
vn -0.0000 -1.0000 -0.0000
vn -0.0000 1.0000 -0.0000
vn -0.7071 -0.0000 -0.7071
vn 1.0000 -0.0000 -0.0000
vn -0.0000 -0.0000 1.0000
vt 0.384129 -0.000000
vt 0.384129 0.768257
vt -0.000000 0.384129
vt 0.384129 -0.000000
vt 0.768257 0.384129
vt 0.768257 0.768257
vt 0.768257 -0.000000
vt 0.845505 -0.000000
vt 0.845505 0.768257
vt 0.845505 0.543240
vt 0.845505 -0.000000
vt 0.922752 0.000000
vt 0.922752 0.543240
vt 0.922752 0.543240
vt 0.922752 -0.000000
vt 1.000000 -0.000000
vt 1.000000 0.543240
s 0
usemtl 中三角形.002
f 4/1/1 3/2/1 1/3/1
f 5/4/2 6/5/2 7/2/2
f 3/6/3 4/7/3 5/8/3 7/9/3
f 1/10/4 3/11/4 7/12/4 6/13/4
f 4/14/5 1/15/5 6/16/5 5/17/5
