# Blender 4.3.2
# www.blender.org
mtllib 大三角形02碰撞.mtl
o 大三角形02碰撞
v 5.660686 0.000000 -0.694173
v 7.170686 0.000000 0.815827
v 4.150686 0.000000 0.815827
v 4.150686 -0.214719 0.815827
v 7.170686 -0.214719 0.815827
v 5.660686 -0.214719 -0.694173
vn -0.0000 -1.0000 -0.0000
vn -0.0000 1.0000 -0.0000
vn 0.7071 -0.0000 0.7071
vn -0.7071 -0.0000 0.7071
vn -0.0000 -0.0000 -1.0000
vt 0.500000 1.000000
vt -0.000000 0.500000
vt 0.500000 0.000000
vt 0.000000 1.000000
vt 0.000000 0.000000
vt 0.500000 0.500000
s 0
usemtl 大三角形001.001
f 3/1/1 1/2/1 2/3/1
f 4/4/2 5/5/2 6/6/2
f 1/6/3 3/4/3 4/4/3 6/6/3
f 2/5/4 1/6/4 6/6/4 5/5/4
f 3/4/5 2/5/5 5/5/5 4/4/5
