# Blender 4.3.2
# www.blender.org
mtllib 大三角形01碰撞.mtl
o 大三角形01碰撞
v 7.855756 0.000000 -0.998346
v 4.835756 0.000000 -0.998346
v 6.345757 0.000000 -2.508346
v 4.835756 -0.214719 -0.998346
v 7.855756 -0.214719 -0.998346
v 6.345757 -0.214719 -2.508346
vn -0.0000 -1.0000 -0.0000
vn -0.0000 1.0000 -0.0000
vn -0.7071 -0.0000 0.7071
vn 0.7071 -0.0000 0.7071
vn -0.0000 -0.0000 -1.0000
vt -0.000000 0.000000
vt 0.500000 0.000000
vt 0.500000 0.500000
vt 0.500000 1.000000
vt -0.000000 0.500000
vt 0.500000 0.500000
vt 0.600549 0.500000
vt 0.600549 0.000000
vt 0.650824 0.000000
vt 0.650824 0.500000
vt 0.550275 0.500000
vt 0.550275 -0.000000
vt 0.600549 0.000000
vt 0.600549 0.500000
vt 0.500000 0.707107
vt 0.500000 0.000000
vt 0.550275 0.000000
vt 0.550275 0.707107
s 0
usemtl 大三角板002.001
f 2/1/1 3/2/1 1/3/1
f 4/4/2 5/5/2 6/6/2
f 1/7/3 3/8/3 6/9/3 5/10/3
f 3/11/4 2/12/4 4/13/4 6/14/4
f 2/15/5 1/16/5 5/17/5 4/18/5
