# Blender 4.3.2
# www.blender.org
mtllib 小三角形02碰撞.mtl
o 小三角形002碰撞
v 6.775640 0.000000 0.015769
v 7.530641 0.000000 -0.739231
v 6.020640 0.000000 -0.739231
v 7.530641 -0.214719 -0.739231
v 6.775640 -0.214719 0.015769
v 6.020640 -0.214719 -0.739231
vn -0.0000 -1.0000 -0.0000
vn -0.0000 1.0000 -0.0000
vn 0.7071 -0.0000 -0.7071
vn -0.0000 -0.0000 1.0000
vn -0.7071 -0.0000 -0.7071
vt 0.500000 -0.000000
vt 0.500000 0.500000
vt 0.000000 0.500000
vt 0.000000 1.000000
vt 0.500000 0.500000
vt 0.500000 1.000000
vt 0.600549 0.500000
vt 0.600549 0.000000
vt 0.701098 0.000000
vt 0.701098 0.500000
vt 0.500000 0.707107
vt 0.500000 -0.000000
vt 0.600549 0.000000
vt 0.600549 0.707107
vt 0.701098 0.500000
vt 0.701098 -0.000000
vt 0.801648 -0.000000
vt 0.801647 0.500000
s 0
usemtl 小三角形002.001
f 2/1/1 1/2/1 3/3/1
f 4/4/2 6/5/2 5/6/2
f 3/7/3 1/8/3 5/9/3 6/10/3
f 2/11/4 3/12/4 6/13/4 4/14/4
f 1/15/5 2/16/5 4/17/5 5/18/5
