# Blender 4.3.2
# www.blender.org
mtllib 菱形碰撞.mtl
o 菱形碰撞
v 5.727825 -0.211782 -2.061123
v 4.654975 -0.211782 -0.998535
v 3.587256 -0.211783 -1.003667
v 4.660107 -0.211783 -2.066254
v 5.727825 0.002937 -2.061123
v 4.654975 0.002937 -0.998535
v 4.660107 0.002936 -2.066254
v 3.587256 0.002936 -1.003667
vn -0.0000 1.0000 -0.0000
vn -0.0000 -1.0000 -0.0000
vn 0.0048 -0.0000 -1.0000
vn -0.0048 -0.0000 1.0000
vn 0.7037 -0.0000 0.7105
vn -0.7037 -0.0000 -0.7105
vt 0.333333 -0.000000
vt 0.666667 0.333333
vt 0.666667 1.000000
vt 0.333333 0.666667
vt 0.000000 1.000000
vt 0.000000 0.333333
vt 0.333333 -0.000000
vt 0.333333 0.666667
vt 0.666667 0.471405
vt 0.666667 -0.000000
vt 0.761466 -0.000000
vt 0.761466 0.471405
vt 0.761466 0.471405
vt 0.761466 0.000000
vt 0.856264 0.000000
vt 0.856264 0.471405
vt 0.761466 0.942809
vt 0.856264 0.942809
vt 0.666667 0.942809
vt 0.761465 0.942809
s 0
usemtl 菱形.001
f 1/1/1 4/2/1 3/3/1 2/4/1
f 5/5/2 6/6/2 8/7/2 7/8/2
f 2/9/3 3/10/3 8/11/3 6/12/3
f 4/13/4 1/14/4 5/15/4 7/16/4
f 3/17/5 4/13/5 7/16/5 8/18/5
f 1/19/6 2/9/6 6/12/6 5/20/6
